PathFileType	4	(X/Y/Z)	C:/Users/beibeiliu/ov580/test_trc/User3\out9_training_dense_right.trc
DataRate	CameraRate	NumFrames	NumMarkers	Units	OrigDataRate	OrigDataStartFrame	OrigNumFrames
120	120	21	19	mm	120	376	500
Frame#	Time	ThumbCMC			ThumbMCP			ThumbIP			ThumbTip			IndexMCP			IndexPIP			IndexTip			MiddleMCP			MiddlePIP			MiddleTip			RingMCP			RingPIP			RingTip			PinkyMCP			PinkyPIP			PinkyTip			BackHand1			BackHand2			BackHand3	
		X0	Y0	Z0	X1	Y1	Z1	X2	Y2	Z2	X3	Y3	Z3	X4	Y4	Z4	X5	Y5	Z5	X6	Y6	Z6	X7	Y7	Z7	X8	Y8	Z8	X9	Y9	Z9	X10	Y10	Z10	X11	Y11	Z11	X12	Y12	Z12	X13	Y13	Z13	X14	Y14	Z14	X15	Y15	Z15	X16	Y16	Z16	X17	Y17	Z17	X18	Y18	Z18	
375	3.125	155.851	103.1	93.4502	131.158	126.179	76.5063	101.885	129.855	58.5852	83.3028	106.736	55.7734	126.147	102.909	26.3792	102.352	125.427	34.2411	111.737	115.82	68.024	110.466	86.8851	22.1823	88.5305	106.867	32.3507	103.631	97.5185	70.0035	104.108	71.4484	29.7942	78.8788	87.6128	39.9902	91.7471	94.1226	71.6658	106.902	49.6932	43.0216	93.3373	50.2417	24.955	83.6162	49.9831	5.75894	145.072	47.0455	65.82	155.538	40.5067	92.468	167.802	72.6735	75.5936	
376	3.13333	168.846	101.195	87.7931	152.564	129.226	75.657	123.873	135.09	55.0229	99.6089	118.789	52.875	140.085	109.338	21.1271	122.685	133.115	34.7152	131.33	125.349	63.097	121.984	91.4665	19.5366	105.792	117.535	29.7353	120.433	108.8	66.8587	112.043	81.0764	25.001	92.107	100.884	33.0281	101.283	107.744	62.9146	108.784	58.4597	37.905	94.4784	58.924	21.6341	85.0656	62.0744	1.54472	142.138	46.1204	67.7322	153.013	38.1312	94.6043	170.718	62.3918	71.5131	
377	3.14167	181.826	94.4131	89.5746	170.33	124.228	68.5123	146.121	133.338	52.6872	118.792	123.423	48.4004	159.012	105.139	18.7475	143.535	131.815	29.4176	146.75	123.037	58.6939	139.04	93.6212	13.5386	123.42	120.574	25.2259	134.504	112.937	60.1782	122.874	78.1013	24.2638	108.436	109.277	28.8544	117.406	112.279	57.6453	115.417	60.7698	38.3275	105.755	65.2387	15.7566	101.554	68.133	-0.910466	144.997	45.9316	63.8813	150.036	35.6753	90.1486	179.248	56.0649	74.847	
378	3.15	190.98	87.8925	89.848	187.542	121.75	69.3146	161.487	129.983	47.2357	139.081	121.433	46.1264	177.62	95.6688	18.0367	163.151	126.313	24.9794	168.502	117.178	58.0453	157.454	88.5248	11.387	142.19	116.645	16.2724	148.14	112.156	54.6755	141.149	77.3589	19.9628	124.931	107.057	21.6934	135.057	112.102	52.2692	127.192	59.4659	32.5845	122.823	64.0901	11.9001	114.245	68.4097	-9.90439	153.625	44.1003	62.6335	159.317	34.2468	94.1433	184.204	51.6237	73.5711	
379	3.15833	204.329	87.6297	88.5821	196.84	112.014	66.7261	178.922	124.329	47.335	154.402	115.873	41.1001	192.82	88.1231	18.481	183.821	119.434	21.4128	180.735	112.834	55.3057	172.228	81.2919	8.59177	163.021	110.663	12.6891	160.68	106.161	51.9351	159.469	73.4964	15.1126	148.138	99.8188	11.955	146.066	106.776	45.2782	140.607	53.7284	30.6103	141.745	58.0514	5.75255	140.305	62.5318	-16.4159	162.06	37.5043	64.3416	161.689	31.4771	89.4174	192.794	48.071	81.1931	
380	3.16667	211.771	86.0338	99.0517	207.905	109.53	69.0842	194.663	121.971	45.0196	168.175	109.477	35.3799	210.957	85.342	19.5872	202.349	114.715	22.2233	192.619	108.014	55.9592	195.042	74.6563	12.4734	182.878	104.697	12.1967	178.955	100.382	53.6176	178.257	65.2027	12.8912	166.888	91.7841	9.03697	166.494	103.473	39.8063	163.893	49.1732	31.9699	165.428	51.2734	3.04174	165.6	56.6265	-15.1889	180.39	37.6937	66.8296	173.219	31.5645	92.2068	208.662	45.7653	83.5333	
381	3.175	218.235	87.3844	103.01	218.174	110.859	71.7213	206.423	121.326	45.703	181.974	103.214	31.8597	233.564	84.0132	31.0392	216.421	113.299	27.9581	209.026	109.3	60.4823	219.577	71.8748	17.5586	203.372	101.622	14.4026	192.46	98.8056	49.4767	203.936	63.2188	16.6798	187.924	86.7164	8.95854	182.931	97.4671	41.4714	188.256	44.9196	29.8196	194.486	47.0793	9.0536	196.978	52.3854	-13.8368	196.802	32.2544	68.1819	186.801	28.4849	95.5396	221.486	47.2011	92.6897	
382	3.18333	226.051	95.8355	105.365	224.216	117.581	77.6317	216.008	121.69	45.8226	197.824	101.995	34.2185	250.171	91.4947	38.8571	230.593	117.003	32.5553	217.904	113.244	61.899	241.568	75.8616	28.0961	225.933	103.103	17.3626	203.036	98.6932	50.5606	223.928	61.0497	23.6182	208.113	86.4602	12.1151	193.454	92.7189	42.4469	209.898	43.9357	36.7859	221.163	45.5558	12.9196	230.782	55.8061	-6.36337	213.977	35.6936	72.9011	199.895	29.9569	102.167	234.094	54.9829	102.101	
383	3.19167	224.833	98.2562	112.023	226.213	122.796	81.299	220.933	123.661	49.1968	209.58	106.782	31.4266	263.969	101.734	48.622	238.599	121.215	37.3245	221.059	112.692	65.8479	256.79	86.2532	33.9948	236.765	109.743	24.1327	214.019	98.5766	57.8326	245.257	67.5196	30.4486	225.273	90.5223	17.1336	208.093	95.0774	41.3051	236.169	46.7741	39.4265	247.788	49.7282	19.089	260.451	60.8389	2.47983	234.416	43.2263	82.01	215.328	34.0376	105.998	241.455	61.0253	109.801	
384	3.2	225.886	105.964	114.56	225.545	130.696	82.1002	222.579	129.097	54.7	220.095	109.164	34.2263	270.456	114.968	58.0122	246.374	132.003	44.2256	225.331	119.466	67.5051	268.089	100.538	43.2941	241.666	117.247	32.2982	220.538	105.62	61.6311	260.235	79.4609	42.1781	243.127	94.9696	21.0827	218.678	98.6161	46.6729	255.747	54.9087	48.9607	270.023	63.4625	31.5724	282.797	70.5482	10.9874	250.378	50.4469	86.5094	230.106	41.8448	111.461	251.884	73.3277	116.209	
385	3.20833	223.178	112.414	114.537	218.817	131.029	85.6607	222.376	133.922	52.8168	224.901	113.29	35.3098	268.656	126.141	65.7791	240.538	135.255	48.1772	222.975	122.244	72.7897	272.829	110.912	49.7459	243.434	120.139	34.5123	223.097	109.04	64.0491	270.712	94.1676	49.1396	251.841	103.94	27.5893	223.748	96.2874	46.2421	271.88	67.3472	57.1955	285.565	78.527	42.9601	298.014	89.8782	27.5994	261.378	61.4604	98.2558	244.678	50.022	113.894	253.872	86.8824	124.062	
386	3.21667	216.999	113.292	115.053	210.755	133.381	83	218.952	134.554	53.4742	229.708	117.227	35.9103	261.664	143.402	72.3757	233.861	144.368	53.3396	218.273	125.409	73.3394	272.753	127.183	55.9336	246.24	133.486	40.0972	222.79	109.483	68.1973	276.667	109.634	53.8487	254.597	115.842	33.8266	229.167	101.133	48.8516	278.543	85.8968	68.6436	296.101	97.6413	52.1914	306.633	113.47	39.229	266.382	79.281	104.846	252.742	61.5872	122.205	248.16	96.378	128.817	
387	3.225	205.307	112.29	115.488	199.913	126.94	83.588	208.075	135.242	53.9734	225.167	123.046	34.3535	249.846	151.198	75.4322	224.015	145.374	53.5636	215.64	121.16	69.1125	263.259	142.376	68.6237	241.139	136.25	40.7897	224.357	107.971	63.4032	272.426	125.433	63.8208	254.142	125.661	38.3879	233.029	103.734	46.4333	283.125	105.215	75.2569	296.245	119.619	61.3311	303.013	134.495	54.8159	267.146	94.6306	110.621	254.165	71.9627	125.944	245.132	104.052	130.889	
388	3.23333	196.644	109.21	111.116	191.169	126.454	76.1342	197.624	133.531	48.8653	221.007	126.907	31.5607	231.054	159.304	74.1672	216.25	146.619	50.172	209.312	120.013	65.9086	250.507	150.843	70.6771	232.886	141.692	41.0472	220.879	110.403	59.2935	265.773	136.254	63.7946	253.201	132.118	39.8913	230.537	108.311	45.0268	278.96	113.833	80.1646	284.864	134.733	69.2125	296.185	154.195	57.9072	261.77	97.6738	114.484	251.159	78.0735	130.135	234.212	110.019	131.145	
389	3.24167	183.719	102.968	106.074	180.935	116.239	73.2353	188.604	127.176	44.3651	217.084	122.884	31.3134	219.856	156.793	68.4711	207.268	141.77	42.4907	198.852	114.892	62.6078	236.358	154.893	63.2786	225.008	138.321	36.8082	216.595	107.378	54.1002	252.673	141.56	62.7162	240.736	131.01	37.2891	230.557	101.682	43.4597	268.343	123.709	80.7586	272.933	142.184	70.2772	279.42	161.799	60.16	252.894	106.34	116.856	246.257	82.6181	132.188	218.651	115.062	128.115	
390	3.25	176.424	95.035	100.348	172.279	108.6	63.6836	181.344	116.718	35.5706	207.572	114.652	24.1795	202.861	151.768	61.1202	195.192	135.92	33.5628	196.874	106.866	53.2204	229.394	146.786	57.7613	219.132	129.999	28.5916	209.817	99.9911	49.0555	242.224	138.646	55.7466	233.889	124.217	30.161	218.698	95.3371	41.2871	257.263	125.472	76.4312	264.225	141.238	64.9119	268.65	159.924	56.7542	243.307	113.789	110.799	238.189	85.8481	127.529	208.188	108.83	121.885	
391	3.25833	171.847	88.2819	94.541	162.911	97.0644	59.8501	170.45	103.802	29.3064	199.116	103.064	16.4735	197.777	141.385	51.1435	188.156	121.163	24.8058	188.668	95.6024	47.557	216.384	140.286	49.0823	208.334	119.801	20.5106	204.963	89.9482	43.7912	234.16	128.855	52.052	230.44	115.214	23.5324	214.823	85.7591	36.2416	253.448	123.109	67.4542	256.981	137.416	53.9112	260.817	155.621	45.517	232.595	110.913	105.155	227.443	88.4244	121.871	198.134	108.124	117.07	
392	3.26667	163.12	85.4407	89.0701	157.769	89.577	54.565	167.204	94.4524	24.5752	190.754	88.9916	10.3373	186.363	132.171	39.5116	181.005	110.204	18.4778	177.978	86.932	43.442	212.831	128.566	38.1476	203.238	105.576	14.9848	193.212	77.9294	43.7858	229.73	119.784	39.3403	218.983	100.275	16.8327	209.508	74.4558	32.8502	246.35	112.634	60.8632	248.278	125.311	47.5015	257.327	142.876	32.5644	229.415	105.832	97.6477	224.903	85.0773	120.665	195.081	102.397	109.886	
393	3.275	155.616	83.0032	85.5455	145.338	79.4578	51.3691	156.206	79.7308	23.0675	183.874	74.7593	9.03116	183.607	118.244	29.1163	173.863	93.16	13.8407	169.49	75.1999	40.5989	200.477	116.21	28.8846	194.567	88.7949	9.02375	185.725	67.7532	39.853	219.499	105.509	29.8007	209.565	81.5704	12.9559	200.797	60.5171	32.301	236.254	103.56	51.7421	239.376	112.458	38.1255	244.796	126.454	22.5007	217.956	99.0298	92.5756	217.853	83.1561	115.076	189.069	101.467	103.689	
394	3.28333	150.025	77.245	87.6616	138.431	73.4257	51.8157	144.683	68.2609	20.0777	167.473	57.9397	8.77122	172.814	109.163	26.1007	161.765	78.582	12.0533	161.494	66.7022	42.4936	194.913	98.6888	18.1081	180.611	72.8109	6.67193	176.059	57.364	43.8438	207.571	90.5711	27.5147	198.815	66.8176	8.59046	182.36	49.7101	32.6	227.508	85.9203	44.5637	234.107	96.7336	24.3311	238.224	107.705	8.09459	212.506	92.1074	84.0154	210.878	77.7748	108.871	181.946	99.3944	94.566	
395	3.29167	139.171	77.6526	86.6271	128.232	70.0886	53.3172	133.625	59.7044	21.7955	152.419	45.8302	10.3521	162.744	96.104	18.544	149.256	69.4711	9.1719	147.399	59.3584	40.5501	181.518	85.5506	13.1715	163.757	61.1366	4.96238	158.588	50.9836	47.2109	198.557	71.5977	18.4021	179.758	52.3083	8.13816	168.74	38.0729	39.8379	219.444	71.6267	36.2495	222.443	77.4248	14.6022	222.378	85.9594	-1.56968	208.894	78.8867	77.4589	201.479	70.2266	108.947	177.524	96.5071	92.7273	
